<?xml version="1.0" encoding="utf-8"?>
<!-- Generator: Adobe Illustrator 16.0.0, SVG Export Plug-In . SVG Version: 6.00 Build 0)  -->
<!DOCTYPE svg PUBLIC "-//W3C//DTD SVG 1.1//EN" "http://www.w3.org/Graphics/SVG/1.1/DTD/svg11.dtd">
<svg version="1.1" id="Layer_1" xmlns="http://www.w3.org/2000/svg" xmlns:xlink="http://www.w3.org/1999/xlink" x="0px" y="0px"
	 width="128px" height="128px" viewBox="0 0 128 128" enable-background="new 0 0 128 128" xml:space="preserve">
<g opacity="0.3">
	<g>
		<g>
			<path fill="#2F4154" d="M64,0C28.656,0,0,28.656,0,64s28.656,64,64,64c35.344,0,64-28.656,64-64S99.344,0,64,0z M64,120
				C33.125,120,8,94.875,8,64S33.125,8,64,8s56,25.125,56,56S94.875,120,64,120z"/>
		</g>
	</g>
</g>
<path fill="#FC771D" d="M52.688,86.625c-3.124,3.124-8.189,3.124-11.313,0l0,0c-3.124-3.124-3.124-8.189,0-11.313l33.937-33.938
	c3.125-3.124,8.19-3.124,11.314,0l0,0c3.123,3.124,3.124,8.189,0,11.314L52.688,86.625z"/>
<path fill="#FC771D" d="M41.375,52.688c-3.124-3.124-3.124-8.19,0-11.314l0,0c3.124-3.124,8.19-3.124,11.313,0l33.937,33.937
	c3.125,3.125,3.124,8.189,0,11.313l0,0c-3.124,3.124-8.188,3.125-11.313,0L41.375,52.688z"/>
</svg>
